PathFileType	4	(X/Y/Z)	E:\Qualisys_Data\Carbon_Farble_Plate\Data\Amateur_Runner\S2\T2\S2T2V21_c3d.trc
DataRate	CameraRate	NumFrames	NumMarkers	Units	OrigDataRate	OrigDataStartFrame	OrigNumFrames
200.000000	200.000000	4	39	mm	200.000000	273	313
Frame#	Time	LSHO			RSHO			LICST			RICST			LASIS			LHEEL			RASIS			LTROC			RTROC			SACR			LTH1			LSK4			LTH2			LTH3			RHM5			LSK2			LTH4			RTH1			LTOE			RTH2			RTH3			RTH4			LLEP			RLEP			LSK1			LSK3			RSK1			LHM5			RSK2			LFT1			RSK3			RSK4			LLME			RLME			RTOE			RHEEL			RFT1			RFT2			LFT2			
		X1	Y1	Z1	X2	Y2	Z2	X3	Y3	Z3	X4	Y4	Z4	X5	Y5	Z5	X6	Y6	Z6	X7	Y7	Z7	X8	Y8	Z8	X9	Y9	Z9	X10	Y10	Z10	X11	Y11	Z11	X12	Y12	Z12	X13	Y13	Z13	X14	Y14	Z14	X15	Y15	Z15	X16	Y16	Z16	X17	Y17	Z17	X18	Y18	Z18	X19	Y19	Z19	X20	Y20	Z20	X21	Y21	Z21	X22	Y22	Z22	X23	Y23	Z23	X24	Y24	Z24	X25	Y25	Z25	X26	Y26	Z26	X27	Y27	Z27	X28	Y28	Z28	X29	Y29	Z29	X30	Y30	Z30	X31	Y31	Z31	X32	Y32	Z32	X33	Y33	Z33	X34	Y34	Z34	X35	Y35	Z35	X36	Y36	Z36	X37	Y37	Z37	X38	Y38	Z38	X39	Y39	Z39	

274	1.365	2407.313720703125	1470.787841796875	-509.8073120117188	2386.088134765625	1465.567626953125	-210.9632415771484	2349.173095703125	997.4354858398438	-489.4439392089844	2373.66064453125	1000.975830078125	-189.4584350585938	2396.5263671875	943.0215454101562	-477.4324645996094	1902.072021484375	202.7753448486328	-318.6430053710938	2430.018798828125	953.709228515625	-222.1160888671875	2249.42431640625	889.730224609375	-477.8912048339844	2307.7685546875	901.6636352539062	-164.297607421875	2267.923583984375	1042.390869140625	-338.1097717285156	2298.64013671875	640.1096801757812	-474.9367980957031	2021.40869140625	352.28271484375	-429.7491760253906	2218.3134765625	667.9122924804688	-480.2968139648438	2263.507080078125	547.0170288085938	-445.3537902832031	2294.972412109375	220.59228515625	-184.4311676025391	2075.151611328125	433.7427978515625	-451.8317565917969	2183.815673828125	578.0343627929688	-448.6472473144531	2547.75927734375	720.2949829101562	-178.4755249023438	2076.68359375	48.50777816772461	-351.2717895507812	2481.50634765625	679.63427734375	-168.7296905517578	2598.763427734375	634.1859741210938	-197.68798828125	2527.835205078125	594.36328125	-187.7925415039062	2194.90576171875	514.7694702148438	-446.1297607421875	2567.953857421875	574.1021118164062	-190.17138671875	2141.50732421875	390.7367858886719	-444.9599914550781	2086.781005859375	307.769775390625	-429.0084228515625	2523.90478515625	467.7533569335938	-194.7334899902344	2016.536254882812	60.54762649536133	-405.0873413085938	2478.88330078125	533.2765502929688	-180.5138244628906	1895.578369140625	175.0767974853516	-293.9911499023438	2439.873779296875	410.3514099121094	-200.657958984375	2397.623779296875	476.1203918457031	-187.69873046875	1959.6767578125	175.8179168701172	-388.3627014160156	2263.595947265625	341.763916015625	-213.229736328125	2346.69287109375	170.6620941162109	-245.2587127685547	2212.70703125	381.6278991699219	-269.7301025390625	2198.16650390625	351.0491943359375	-297.5060119628906	2189.959716796875	365.4588623046875	-242.0847015380859	1879.114501953125	173.4040985107422	-344.965576171875
275	1.37	2428.19775390625	1475.756958007812	-508.7193603515625	2404.971435546875	1470.17919921875	-212.0050506591797	2370.599365234375	1001.1357421875	-489.6543273925781	2395.96533203125	1006.485534667969	-189.9906311035156	2417.978759765625	946.1570434570312	-477.7937316894531	1918.346069335938	215.8891143798828	-323.0041809082031	2451.469482421875	958.0396118164062	-223.3407287597656	2269.343994140625	896.1571044921875	-478.8629455566406	2330.892333984375	906.7073364257812	-164.0789794921875	2289.707763671875	1046.888305664062	-338.388427734375	2314.612060546875	645.5659790039062	-477.0455017089844	2033.001953125	360.1904602050781	-431.8152770996094	2233.821533203125	675.2120361328125	-482.4125061035156	2276.16357421875	553.3917236328125	-447.8126525878906	2335.43994140625	210.6351928710938	-188.3558502197266	2086.184326171875	442.1556396484375	-452.9907836914062	2196.945556640625	586.5029907226562	-450.4846496582031	2570.373779296875	725.3479614257812	-179.9164581298828	2080.182861328125	46.48619842529297	-352.2969360351562	2504.549560546875	684.6416625976562	-170.3492584228516	2620.955078125	638.8519287109375	-199.0767822265625	2549.110595703125	600.7728271484375	-189.0558013916016	2206.479248046875	522.676025390625	-448.2540588378906	2590.0146484375	578.2688598632812	-191.99560546875	2152.593017578125	399.4219970703125	-447.5982971191406	2098.2451171875	315.7930297851562	-432.5346374511719	2550.88623046875	468.8746032714844	-196.3646545410156	2020.782958984375	61.91299438476562	-405.7304382324219	2502.41357421875	531.6572875976562	-180.2317657470703	1908.783569335938	189.2529144287109	-297.3329467773438	2469.515625	406.9408569335938	-202.3965759277344	2424.1611328125	471.2338562011719	-187.2609100341797	1971.59228515625	183.3951873779297	-391.8820495605469	2296.368408203125	329.4241638183594	-214.7790679931641	2389.880859375	165.4859466552734	-250.2624664306641	2242.955078125	367.5205078125	-270.3687744140625	2228.4658203125	335.9607849121094	-297.1447143554688	2221.89453125	350.1989440917969	-242.5663757324219	1892.20947265625	188.0075836181641	-348.6316528320312
276	1.375	2449.168701171875	1481.105346679688	-508.098388671875	2424.112060546875	1474.89013671875	-213.1792907714844	2392.40283203125	1005.222900390625	-489.6952209472656	2418.001708984375	1011.106811523438	-190.9925079345703	2439.150390625	950.1734619140624	-478.7967224121094	1934.657348632812	229.2763824462891	-327.6336975097656	2472.9814453125	962.3860473632812	-224.5679016113281	2289.609375	902.7176513671876	-479.2986450195312	2353.77880859375	911.2587890625	-164.4221801757812	2310.583251953125	1051.880981445312	-339.2408142089844	2327.60546875	651.374267578125	-479.2808532714844	2044.924926757812	368.5245666503906	-434.3242492675781	2249.301513671875	682.5375366210938	-484.4073181152344	2288.50341796875	559.4293823242188	-450.6473083496094	2375.848876953125	200.630615234375	-192.0048370361328	2097.9951171875	450.6368408203125	-454.0379028320312	2210.3798828125	594.7527465820312	-451.9338989257812	2593.0263671875	729.5894165039062	-181.0385589599609	2084.3876953125	45.19200134277344	-354.2944030761719	2526.775634765625	689.0689697265625	-171.8887786865234	2643.06103515625	643.0731811523438	-200.2927093505859	2572.2392578125	603.8050537109375	-191.0415496826172	2218.4033203125	530.477783203125	-450.3537902832031	2612.329345703125	581.2774047851562	-193.5502471923828	2164.417236328125	407.7173156738281	-450.4405517578125	2110.4140625	324.1588745117188	-436.4140319824219	2576.808837890625	469.7779846191406	-197.9312438964844	2025.726318359375	64.91368865966797	-407.2438659667969	2525.3818359375	529.7771606445312	-180.1596527099609	1923.221923828125	204.2859802246094	-300.8092956542969	2498.698974609375	404.0448608398438	-204.1560211181641	2450.3046875	465.2735900878906	-187.6252899169922	1983.990478515625	191.3210754394531	-395.5621032714844	2329.826416015625	317.5292358398438	-216.1043853759766	2431.782958984375	158.8405609130859	-254.7336273193359	2274.178955078125	353.3729248046875	-269.7457885742188	2260.989013671875	320.6937255859375	-297.9938049316406	2255.083251953125	333.4681091308594	-244.6925354003906	1906.285766601562	202.7754211425781	-352.2602844238281
277	1.38	2469.932373046875	1485.783203125	-507.0955200195312	2442.958740234375	1479.204833984375	-214.0431060791016	2413.701416015625	1009.224609375	-490.3780822753906	2440.58251953125	1015.516967773438	-192.4615020751953	2460.933837890625	954.0913696289062	-479.6759033203125	1952.011108398438	242.6303863525391	-332.1582946777344	2494.314208984375	965.8644409179688	-225.5777740478516	2309.889404296875	909.1448974609376	-479.9822082519531	2376.603759765625	915.3624877929688	-164.3060302734375	2332.34375	1055.787109375	-339.8231811523438	2341.93310546875	656.6417236328125	-481.626708984375	2057.448974609375	377.2630004882812	-436.3504943847656	2264.657470703125	689.5702514648438	-486.0202941894531	2301.6298828125	565.0680541992188	-453.9443969726562	2416.274658203125	191.2122497558594	-195.3965911865234	2110.801025390625	459.152587890625	-455.1075744628906	2224.47314453125	602.7592163085938	-453.3800964355469	2615.31005859375	733.6397094726562	-182.5956726074219	2087.876708984375	44.25975036621094	-355.3971557617188	2549.117919921875	693.29833984375	-172.8538360595703	2664.774658203125	646.4537353515625	-201.6038360595703	2593.72216796875	608.64306640625	-192.0859222412109	2231.23583984375	538.010498046875	-451.8781127929688	2634.068603515625	584.1629638671875	-195.4472808837891	2177.005859375	415.5419006347656	-452.5717163085938	2122.616455078125	332.11865234375	-439.2940979003906	2603.050537109375	470.5055847167969	-199.6991424560547	2030.381469726562	68.3595962524414	-409.0118408203125	2548.153076171875	527.2463989257812	-179.8625946044922	1938.76953125	219.5466461181641	-305.0685424804688	2526.3564453125	401.7234191894531	-204.0011291503906	2476.512939453125	459.3934936523438	-188.080078125	1996.108032226562	199.6522674560547	-399.1241149902344	2363.521484375	305.5617065429688	-217.8449554443359	2474.49658203125	153.7326812744141	-259.457763671875	2305.37646484375	338.9017639160156	-270.0544738769531	2294.345947265625	306.7750854492188	-299.4642944335938	2285.949951171875	317.7979125976562	-244.2798156738281	1921.886474609375	218.1049957275391	-356.0279846191406
